<mxfile host="app.diagrams.net" modified="2024-04-10T21:50:45.742Z" agent="Mozilla/5.0 (Windows NT 10.0; Win64; x64) AppleWebKit/537.36 (KHTML, like Gecko) Chrome/123.0.0.0 Safari/537.36 Edg/123.0.0.0" etag="s4pb27OjfTPeWFEGVIAL" version="24.2.3" type="device">
  <diagram name="第 1 页" id="q9NyIN3uyb69h4GF0Fi9">
    <mxGraphModel dx="514" dy="348" grid="0" gridSize="10" guides="1" tooltips="1" connect="1" arrows="1" fold="1" page="1" pageScale="1" pageWidth="4681" pageHeight="3300" math="0" shadow="0">
      <root>
        <mxCell id="0" />
        <mxCell id="1" parent="0" />
        <mxCell id="hplAIRkpgE25BgXuPPtN-1" value="&lt;b&gt;Fowarding&lt;/b&gt;" style="rounded=0;whiteSpace=wrap;html=1;fillColor=#ffe6cc;strokeColor=#d79b00;" vertex="1" parent="1">
          <mxGeometry x="440.5" y="2333" width="96.5" height="224" as="geometry" />
        </mxCell>
        <mxCell id="hplAIRkpgE25BgXuPPtN-22" value="" style="endArrow=classic;html=1;rounded=0;entryX=0;entryY=0.875;entryDx=0;entryDy=0;entryPerimeter=0;strokeWidth=2;" edge="1" parent="1">
          <mxGeometry width="50" height="50" relative="1" as="geometry">
            <mxPoint x="537" y="2460.8599999999997" as="sourcePoint" />
            <mxPoint x="577" y="2460.8599999999997" as="targetPoint" />
          </mxGeometry>
        </mxCell>
        <mxCell id="hplAIRkpgE25BgXuPPtN-23" value="rf_rd0_fd" style="text;html=1;strokeColor=none;fillColor=none;align=center;verticalAlign=middle;whiteSpace=wrap;rounded=0;fontStyle=1" vertex="1" parent="1">
          <mxGeometry x="585" y="2451.5" width="42.5" height="17" as="geometry" />
        </mxCell>
        <mxCell id="hplAIRkpgE25BgXuPPtN-24" value="" style="group" vertex="1" connectable="0" parent="1">
          <mxGeometry x="541" y="2449" width="15.5" height="22" as="geometry" />
        </mxCell>
        <mxCell id="hplAIRkpgE25BgXuPPtN-25" value="" style="endArrow=none;html=1;rounded=0;" edge="1" parent="hplAIRkpgE25BgXuPPtN-24">
          <mxGeometry width="50" height="50" relative="1" as="geometry">
            <mxPoint x="5.5" y="22" as="sourcePoint" />
            <mxPoint x="15.5" y="2" as="targetPoint" />
          </mxGeometry>
        </mxCell>
        <mxCell id="hplAIRkpgE25BgXuPPtN-26" value="32" style="text;html=1;strokeColor=none;fillColor=none;align=center;verticalAlign=middle;whiteSpace=wrap;rounded=0;fontSize=6;" vertex="1" parent="hplAIRkpgE25BgXuPPtN-24">
          <mxGeometry width="11" height="11" as="geometry" />
        </mxCell>
        <mxCell id="hplAIRkpgE25BgXuPPtN-27" value="" style="endArrow=classic;html=1;rounded=0;entryX=0;entryY=0.875;entryDx=0;entryDy=0;entryPerimeter=0;strokeWidth=2;" edge="1" parent="1">
          <mxGeometry width="50" height="50" relative="1" as="geometry">
            <mxPoint x="537" y="2490.8599999999997" as="sourcePoint" />
            <mxPoint x="577" y="2490.8599999999997" as="targetPoint" />
          </mxGeometry>
        </mxCell>
        <mxCell id="hplAIRkpgE25BgXuPPtN-28" value="rf_rd1_fd" style="text;html=1;strokeColor=none;fillColor=none;align=center;verticalAlign=middle;whiteSpace=wrap;rounded=0;fontStyle=1" vertex="1" parent="1">
          <mxGeometry x="585" y="2481.5" width="42.5" height="17" as="geometry" />
        </mxCell>
        <mxCell id="hplAIRkpgE25BgXuPPtN-29" value="" style="group" vertex="1" connectable="0" parent="1">
          <mxGeometry x="541" y="2479" width="15.5" height="22" as="geometry" />
        </mxCell>
        <mxCell id="hplAIRkpgE25BgXuPPtN-30" value="" style="endArrow=none;html=1;rounded=0;" edge="1" parent="hplAIRkpgE25BgXuPPtN-29">
          <mxGeometry width="50" height="50" relative="1" as="geometry">
            <mxPoint x="5.5" y="22" as="sourcePoint" />
            <mxPoint x="15.5" y="2" as="targetPoint" />
          </mxGeometry>
        </mxCell>
        <mxCell id="hplAIRkpgE25BgXuPPtN-31" value="32" style="text;html=1;strokeColor=none;fillColor=none;align=center;verticalAlign=middle;whiteSpace=wrap;rounded=0;fontSize=6;" vertex="1" parent="hplAIRkpgE25BgXuPPtN-29">
          <mxGeometry width="11" height="11" as="geometry" />
        </mxCell>
        <mxCell id="hplAIRkpgE25BgXuPPtN-32" value="rf_we_mem" style="text;html=1;strokeColor=none;fillColor=none;align=center;verticalAlign=middle;whiteSpace=wrap;rounded=0;fontStyle=1" vertex="1" parent="1">
          <mxGeometry x="319.5" y="2337" width="80.5" height="10" as="geometry" />
        </mxCell>
        <mxCell id="hplAIRkpgE25BgXuPPtN-33" value="" style="endArrow=classic;html=1;rounded=0;entryX=0;entryY=0.875;entryDx=0;entryDy=0;entryPerimeter=0;strokeWidth=2;" edge="1" parent="1">
          <mxGeometry width="50" height="50" relative="1" as="geometry">
            <mxPoint x="400.5" y="2342.8599999999997" as="sourcePoint" />
            <mxPoint x="440.5" y="2342.8599999999997" as="targetPoint" />
          </mxGeometry>
        </mxCell>
        <mxCell id="hplAIRkpgE25BgXuPPtN-37" value="rf_we_wb" style="text;html=1;strokeColor=none;fillColor=none;align=center;verticalAlign=middle;whiteSpace=wrap;rounded=0;fontStyle=1" vertex="1" parent="1">
          <mxGeometry x="325.5" y="2356" width="80.5" height="10" as="geometry" />
        </mxCell>
        <mxCell id="hplAIRkpgE25BgXuPPtN-38" value="" style="endArrow=classic;html=1;rounded=0;entryX=0;entryY=0.875;entryDx=0;entryDy=0;entryPerimeter=0;strokeWidth=2;" edge="1" parent="1">
          <mxGeometry width="50" height="50" relative="1" as="geometry">
            <mxPoint x="400.5" y="2361.8599999999997" as="sourcePoint" />
            <mxPoint x="440.5" y="2361.8599999999997" as="targetPoint" />
          </mxGeometry>
        </mxCell>
        <mxCell id="hplAIRkpgE25BgXuPPtN-39" value="rf_wa_mem" style="text;html=1;strokeColor=none;fillColor=none;align=center;verticalAlign=middle;whiteSpace=wrap;rounded=0;fontStyle=1" vertex="1" parent="1">
          <mxGeometry x="320" y="2379" width="80.5" height="10" as="geometry" />
        </mxCell>
        <mxCell id="hplAIRkpgE25BgXuPPtN-41" value="rf_wa_wb" style="text;html=1;strokeColor=none;fillColor=none;align=center;verticalAlign=middle;whiteSpace=wrap;rounded=0;fontStyle=1" vertex="1" parent="1">
          <mxGeometry x="325.5" y="2401" width="80.5" height="10" as="geometry" />
        </mxCell>
        <mxCell id="hplAIRkpgE25BgXuPPtN-45" value="rf_wd_wb" style="text;html=1;strokeColor=none;fillColor=none;align=center;verticalAlign=middle;whiteSpace=wrap;rounded=0;fontStyle=1" vertex="1" parent="1">
          <mxGeometry x="326" y="2426" width="80.5" height="10" as="geometry" />
        </mxCell>
        <mxCell id="hplAIRkpgE25BgXuPPtN-59" value="" style="endArrow=classic;html=1;rounded=0;entryX=0;entryY=0.875;entryDx=0;entryDy=0;entryPerimeter=0;strokeWidth=2;" edge="1" parent="1">
          <mxGeometry width="50" height="50" relative="1" as="geometry">
            <mxPoint x="400" y="2431.8599999999997" as="sourcePoint" />
            <mxPoint x="440" y="2431.8599999999997" as="targetPoint" />
          </mxGeometry>
        </mxCell>
        <mxCell id="hplAIRkpgE25BgXuPPtN-60" value="" style="group" vertex="1" connectable="0" parent="1">
          <mxGeometry x="404" y="2420" width="15.5" height="22" as="geometry" />
        </mxCell>
        <mxCell id="hplAIRkpgE25BgXuPPtN-61" value="" style="endArrow=none;html=1;rounded=0;" edge="1" parent="hplAIRkpgE25BgXuPPtN-60">
          <mxGeometry width="50" height="50" relative="1" as="geometry">
            <mxPoint x="5.5" y="22" as="sourcePoint" />
            <mxPoint x="15.5" y="2" as="targetPoint" />
          </mxGeometry>
        </mxCell>
        <mxCell id="hplAIRkpgE25BgXuPPtN-62" value="32" style="text;html=1;strokeColor=none;fillColor=none;align=center;verticalAlign=middle;whiteSpace=wrap;rounded=0;fontSize=6;" vertex="1" parent="hplAIRkpgE25BgXuPPtN-60">
          <mxGeometry width="11" height="11" as="geometry" />
        </mxCell>
        <mxCell id="hplAIRkpgE25BgXuPPtN-63" value="" style="endArrow=classic;html=1;rounded=0;entryX=0;entryY=0.875;entryDx=0;entryDy=0;entryPerimeter=0;strokeWidth=2;" edge="1" parent="1">
          <mxGeometry width="50" height="50" relative="1" as="geometry">
            <mxPoint x="400" y="2384.8599999999997" as="sourcePoint" />
            <mxPoint x="440" y="2384.8599999999997" as="targetPoint" />
          </mxGeometry>
        </mxCell>
        <mxCell id="hplAIRkpgE25BgXuPPtN-64" value="" style="group" vertex="1" connectable="0" parent="1">
          <mxGeometry x="404" y="2373" width="15.5" height="22" as="geometry" />
        </mxCell>
        <mxCell id="hplAIRkpgE25BgXuPPtN-65" value="" style="endArrow=none;html=1;rounded=0;" edge="1" parent="hplAIRkpgE25BgXuPPtN-64">
          <mxGeometry width="50" height="50" relative="1" as="geometry">
            <mxPoint x="5.5" y="22" as="sourcePoint" />
            <mxPoint x="15.5" y="2" as="targetPoint" />
          </mxGeometry>
        </mxCell>
        <mxCell id="hplAIRkpgE25BgXuPPtN-66" value="5" style="text;html=1;strokeColor=none;fillColor=none;align=center;verticalAlign=middle;whiteSpace=wrap;rounded=0;fontSize=6;" vertex="1" parent="hplAIRkpgE25BgXuPPtN-64">
          <mxGeometry width="11" height="11" as="geometry" />
        </mxCell>
        <mxCell id="hplAIRkpgE25BgXuPPtN-67" value="" style="endArrow=classic;html=1;rounded=0;entryX=0;entryY=0.875;entryDx=0;entryDy=0;entryPerimeter=0;strokeWidth=2;" edge="1" parent="1">
          <mxGeometry width="50" height="50" relative="1" as="geometry">
            <mxPoint x="400" y="2406.8599999999997" as="sourcePoint" />
            <mxPoint x="440" y="2406.8599999999997" as="targetPoint" />
          </mxGeometry>
        </mxCell>
        <mxCell id="hplAIRkpgE25BgXuPPtN-68" value="" style="group" vertex="1" connectable="0" parent="1">
          <mxGeometry x="404" y="2395" width="15.5" height="22" as="geometry" />
        </mxCell>
        <mxCell id="hplAIRkpgE25BgXuPPtN-69" value="" style="endArrow=none;html=1;rounded=0;" edge="1" parent="hplAIRkpgE25BgXuPPtN-68">
          <mxGeometry width="50" height="50" relative="1" as="geometry">
            <mxPoint x="5.5" y="22" as="sourcePoint" />
            <mxPoint x="15.5" y="2" as="targetPoint" />
          </mxGeometry>
        </mxCell>
        <mxCell id="hplAIRkpgE25BgXuPPtN-70" value="5" style="text;html=1;strokeColor=none;fillColor=none;align=center;verticalAlign=middle;whiteSpace=wrap;rounded=0;fontSize=6;" vertex="1" parent="hplAIRkpgE25BgXuPPtN-68">
          <mxGeometry width="11" height="11" as="geometry" />
        </mxCell>
        <mxCell id="hplAIRkpgE25BgXuPPtN-72" value="rf_ra0_ex" style="text;html=1;strokeColor=none;fillColor=none;align=center;verticalAlign=middle;whiteSpace=wrap;rounded=0;fontStyle=1" vertex="1" parent="1">
          <mxGeometry x="319.5" y="2523" width="80.5" height="10" as="geometry" />
        </mxCell>
        <mxCell id="hplAIRkpgE25BgXuPPtN-73" value="" style="endArrow=classic;html=1;rounded=0;entryX=0;entryY=0.875;entryDx=0;entryDy=0;entryPerimeter=0;strokeWidth=2;" edge="1" parent="1">
          <mxGeometry width="50" height="50" relative="1" as="geometry">
            <mxPoint x="399.5" y="2528.8599999999997" as="sourcePoint" />
            <mxPoint x="439.5" y="2528.8599999999997" as="targetPoint" />
          </mxGeometry>
        </mxCell>
        <mxCell id="hplAIRkpgE25BgXuPPtN-74" value="" style="group" vertex="1" connectable="0" parent="1">
          <mxGeometry x="403.5" y="2517" width="15.5" height="22" as="geometry" />
        </mxCell>
        <mxCell id="hplAIRkpgE25BgXuPPtN-75" value="" style="endArrow=none;html=1;rounded=0;" edge="1" parent="hplAIRkpgE25BgXuPPtN-74">
          <mxGeometry width="50" height="50" relative="1" as="geometry">
            <mxPoint x="5.5" y="22" as="sourcePoint" />
            <mxPoint x="15.5" y="2" as="targetPoint" />
          </mxGeometry>
        </mxCell>
        <mxCell id="hplAIRkpgE25BgXuPPtN-76" value="5" style="text;html=1;strokeColor=none;fillColor=none;align=center;verticalAlign=middle;whiteSpace=wrap;rounded=0;fontSize=6;" vertex="1" parent="hplAIRkpgE25BgXuPPtN-74">
          <mxGeometry width="11" height="11" as="geometry" />
        </mxCell>
        <mxCell id="hplAIRkpgE25BgXuPPtN-77" value="rf_ra1_ex" style="text;html=1;strokeColor=none;fillColor=none;align=center;verticalAlign=middle;whiteSpace=wrap;rounded=0;fontStyle=1" vertex="1" parent="1">
          <mxGeometry x="320.5" y="2545" width="80.5" height="10" as="geometry" />
        </mxCell>
        <mxCell id="hplAIRkpgE25BgXuPPtN-78" value="" style="endArrow=classic;html=1;rounded=0;entryX=0;entryY=0.875;entryDx=0;entryDy=0;entryPerimeter=0;strokeWidth=2;" edge="1" parent="1">
          <mxGeometry width="50" height="50" relative="1" as="geometry">
            <mxPoint x="399.5" y="2550.8599999999997" as="sourcePoint" />
            <mxPoint x="439.5" y="2550.8599999999997" as="targetPoint" />
          </mxGeometry>
        </mxCell>
        <mxCell id="hplAIRkpgE25BgXuPPtN-79" value="" style="group" vertex="1" connectable="0" parent="1">
          <mxGeometry x="403.5" y="2539" width="15.5" height="22" as="geometry" />
        </mxCell>
        <mxCell id="hplAIRkpgE25BgXuPPtN-80" value="" style="endArrow=none;html=1;rounded=0;" edge="1" parent="hplAIRkpgE25BgXuPPtN-79">
          <mxGeometry width="50" height="50" relative="1" as="geometry">
            <mxPoint x="5.5" y="22" as="sourcePoint" />
            <mxPoint x="15.5" y="2" as="targetPoint" />
          </mxGeometry>
        </mxCell>
        <mxCell id="hplAIRkpgE25BgXuPPtN-81" value="5" style="text;html=1;strokeColor=none;fillColor=none;align=center;verticalAlign=middle;whiteSpace=wrap;rounded=0;fontSize=6;" vertex="1" parent="hplAIRkpgE25BgXuPPtN-79">
          <mxGeometry width="11" height="11" as="geometry" />
        </mxCell>
        <mxCell id="hplAIRkpgE25BgXuPPtN-83" value="rf_wd_sel_mem" style="text;html=1;strokeColor=none;fillColor=none;align=center;verticalAlign=middle;whiteSpace=wrap;rounded=0;fontStyle=1" vertex="1" parent="1">
          <mxGeometry x="308.5" y="2448" width="80.5" height="10" as="geometry" />
        </mxCell>
        <mxCell id="hplAIRkpgE25BgXuPPtN-84" value="" style="endArrow=classic;html=1;rounded=0;entryX=0;entryY=0.875;entryDx=0;entryDy=0;entryPerimeter=0;strokeWidth=2;" edge="1" parent="1">
          <mxGeometry width="50" height="50" relative="1" as="geometry">
            <mxPoint x="399.5" y="2453.8599999999997" as="sourcePoint" />
            <mxPoint x="439.5" y="2453.8599999999997" as="targetPoint" />
          </mxGeometry>
        </mxCell>
        <mxCell id="hplAIRkpgE25BgXuPPtN-85" value="" style="group" vertex="1" connectable="0" parent="1">
          <mxGeometry x="403.5" y="2442" width="15.5" height="22" as="geometry" />
        </mxCell>
        <mxCell id="hplAIRkpgE25BgXuPPtN-86" value="" style="endArrow=none;html=1;rounded=0;" edge="1" parent="hplAIRkpgE25BgXuPPtN-85">
          <mxGeometry width="50" height="50" relative="1" as="geometry">
            <mxPoint x="5.5" y="22" as="sourcePoint" />
            <mxPoint x="15.5" y="2" as="targetPoint" />
          </mxGeometry>
        </mxCell>
        <mxCell id="hplAIRkpgE25BgXuPPtN-87" value="2" style="text;html=1;strokeColor=none;fillColor=none;align=center;verticalAlign=middle;whiteSpace=wrap;rounded=0;fontSize=6;" vertex="1" parent="hplAIRkpgE25BgXuPPtN-85">
          <mxGeometry width="11" height="11" as="geometry" />
        </mxCell>
        <mxCell id="hplAIRkpgE25BgXuPPtN-89" value="" style="endArrow=classic;html=1;rounded=0;entryX=0;entryY=0.875;entryDx=0;entryDy=0;entryPerimeter=0;strokeWidth=2;" edge="1" parent="1">
          <mxGeometry width="50" height="50" relative="1" as="geometry">
            <mxPoint x="537" y="2360.7099999999996" as="sourcePoint" />
            <mxPoint x="577" y="2360.7099999999996" as="targetPoint" />
          </mxGeometry>
        </mxCell>
        <mxCell id="hplAIRkpgE25BgXuPPtN-91" value="" style="endArrow=classic;html=1;rounded=0;entryX=0;entryY=0.875;entryDx=0;entryDy=0;entryPerimeter=0;strokeWidth=2;" edge="1" parent="1">
          <mxGeometry width="50" height="50" relative="1" as="geometry">
            <mxPoint x="537" y="2378.9999999999995" as="sourcePoint" />
            <mxPoint x="577" y="2378.9999999999995" as="targetPoint" />
          </mxGeometry>
        </mxCell>
        <mxCell id="hplAIRkpgE25BgXuPPtN-92" value="rf_rd0_fe" style="text;html=1;strokeColor=none;fillColor=none;align=center;verticalAlign=middle;whiteSpace=wrap;rounded=0;fontStyle=1" vertex="1" parent="1">
          <mxGeometry x="566" y="2356" width="80.5" height="10" as="geometry" />
        </mxCell>
        <mxCell id="hplAIRkpgE25BgXuPPtN-93" value="rf_rd1_fe" style="text;html=1;strokeColor=none;fillColor=none;align=center;verticalAlign=middle;whiteSpace=wrap;rounded=0;fontStyle=1" vertex="1" parent="1">
          <mxGeometry x="566" y="2373" width="80.5" height="10" as="geometry" />
        </mxCell>
        <mxCell id="hplAIRkpgE25BgXuPPtN-94" value="alu_res_mem" style="text;html=1;strokeColor=none;fillColor=none;align=center;verticalAlign=middle;whiteSpace=wrap;rounded=0;fontStyle=1" vertex="1" parent="1">
          <mxGeometry x="313" y="2471" width="80.5" height="10" as="geometry" />
        </mxCell>
        <mxCell id="hplAIRkpgE25BgXuPPtN-95" value="" style="endArrow=classic;html=1;rounded=0;entryX=0;entryY=0.875;entryDx=0;entryDy=0;entryPerimeter=0;strokeWidth=2;" edge="1" parent="1">
          <mxGeometry width="50" height="50" relative="1" as="geometry">
            <mxPoint x="399.5" y="2475.8599999999997" as="sourcePoint" />
            <mxPoint x="439.5" y="2475.8599999999997" as="targetPoint" />
          </mxGeometry>
        </mxCell>
        <mxCell id="hplAIRkpgE25BgXuPPtN-96" value="" style="group" vertex="1" connectable="0" parent="1">
          <mxGeometry x="403.5" y="2464" width="15.5" height="22" as="geometry" />
        </mxCell>
        <mxCell id="hplAIRkpgE25BgXuPPtN-97" value="" style="endArrow=none;html=1;rounded=0;" edge="1" parent="hplAIRkpgE25BgXuPPtN-96">
          <mxGeometry width="50" height="50" relative="1" as="geometry">
            <mxPoint x="5.5" y="22" as="sourcePoint" />
            <mxPoint x="15.5" y="2" as="targetPoint" />
          </mxGeometry>
        </mxCell>
        <mxCell id="hplAIRkpgE25BgXuPPtN-98" value="32" style="text;html=1;strokeColor=none;fillColor=none;align=center;verticalAlign=middle;whiteSpace=wrap;rounded=0;fontSize=6;" vertex="1" parent="hplAIRkpgE25BgXuPPtN-96">
          <mxGeometry width="11" height="11" as="geometry" />
        </mxCell>
        <mxCell id="hplAIRkpgE25BgXuPPtN-99" value="pcadd4_mem" style="text;html=1;strokeColor=none;fillColor=none;align=center;verticalAlign=middle;whiteSpace=wrap;rounded=0;fontStyle=1" vertex="1" parent="1">
          <mxGeometry x="314" y="2493" width="80.5" height="10" as="geometry" />
        </mxCell>
        <mxCell id="hplAIRkpgE25BgXuPPtN-100" value="" style="endArrow=classic;html=1;rounded=0;entryX=0;entryY=0.875;entryDx=0;entryDy=0;entryPerimeter=0;strokeWidth=2;" edge="1" parent="1">
          <mxGeometry width="50" height="50" relative="1" as="geometry">
            <mxPoint x="400.5" y="2497.8599999999997" as="sourcePoint" />
            <mxPoint x="440.5" y="2497.8599999999997" as="targetPoint" />
          </mxGeometry>
        </mxCell>
        <mxCell id="hplAIRkpgE25BgXuPPtN-101" value="" style="group" vertex="1" connectable="0" parent="1">
          <mxGeometry x="404.5" y="2486" width="15.5" height="22" as="geometry" />
        </mxCell>
        <mxCell id="hplAIRkpgE25BgXuPPtN-102" value="" style="endArrow=none;html=1;rounded=0;" edge="1" parent="hplAIRkpgE25BgXuPPtN-101">
          <mxGeometry width="50" height="50" relative="1" as="geometry">
            <mxPoint x="5.5" y="22" as="sourcePoint" />
            <mxPoint x="15.5" y="2" as="targetPoint" />
          </mxGeometry>
        </mxCell>
        <mxCell id="hplAIRkpgE25BgXuPPtN-103" value="32" style="text;html=1;strokeColor=none;fillColor=none;align=center;verticalAlign=middle;whiteSpace=wrap;rounded=0;fontSize=6;" vertex="1" parent="hplAIRkpgE25BgXuPPtN-101">
          <mxGeometry width="11" height="11" as="geometry" />
        </mxCell>
        <mxCell id="hplAIRkpgE25BgXuPPtN-104" value="&lt;b&gt;SegCtrl&lt;/b&gt;" style="rounded=0;whiteSpace=wrap;html=1;fillColor=#ffe6cc;strokeColor=#d79b00;" vertex="1" parent="1">
          <mxGeometry x="823" y="2673" width="96.5" height="159" as="geometry" />
        </mxCell>
        <mxCell id="hplAIRkpgE25BgXuPPtN-144" value="npc_sel_ex" style="text;html=1;strokeColor=none;fillColor=none;align=center;verticalAlign=middle;whiteSpace=wrap;rounded=0;fontStyle=1" vertex="1" parent="1">
          <mxGeometry x="707" y="2810" width="80.5" height="10" as="geometry" />
        </mxCell>
        <mxCell id="hplAIRkpgE25BgXuPPtN-145" value="" style="endArrow=classic;html=1;rounded=0;entryX=0;entryY=0.875;entryDx=0;entryDy=0;entryPerimeter=0;strokeWidth=2;" edge="1" parent="1">
          <mxGeometry width="50" height="50" relative="1" as="geometry">
            <mxPoint x="785" y="2815.8599999999997" as="sourcePoint" />
            <mxPoint x="825" y="2815.8599999999997" as="targetPoint" />
          </mxGeometry>
        </mxCell>
        <mxCell id="hplAIRkpgE25BgXuPPtN-146" value="" style="group" vertex="1" connectable="0" parent="1">
          <mxGeometry x="789" y="2804" width="15.5" height="22" as="geometry" />
        </mxCell>
        <mxCell id="hplAIRkpgE25BgXuPPtN-147" value="" style="endArrow=none;html=1;rounded=0;" edge="1" parent="hplAIRkpgE25BgXuPPtN-146">
          <mxGeometry width="50" height="50" relative="1" as="geometry">
            <mxPoint x="5.5" y="22" as="sourcePoint" />
            <mxPoint x="15.5" y="2" as="targetPoint" />
          </mxGeometry>
        </mxCell>
        <mxCell id="hplAIRkpgE25BgXuPPtN-148" value="2" style="text;html=1;strokeColor=none;fillColor=none;align=center;verticalAlign=middle;whiteSpace=wrap;rounded=0;fontSize=6;" vertex="1" parent="hplAIRkpgE25BgXuPPtN-146">
          <mxGeometry width="11" height="11" as="geometry" />
        </mxCell>
        <mxCell id="hplAIRkpgE25BgXuPPtN-149" value="" style="endArrow=classic;html=1;rounded=0;entryX=0;entryY=0.875;entryDx=0;entryDy=0;entryPerimeter=0;strokeWidth=2;" edge="1" parent="1">
          <mxGeometry width="50" height="50" relative="1" as="geometry">
            <mxPoint x="921.5" y="2760.7099999999996" as="sourcePoint" />
            <mxPoint x="961.5" y="2760.7099999999996" as="targetPoint" />
          </mxGeometry>
        </mxCell>
        <mxCell id="hplAIRkpgE25BgXuPPtN-150" value="" style="endArrow=classic;html=1;rounded=0;entryX=0;entryY=0.875;entryDx=0;entryDy=0;entryPerimeter=0;strokeWidth=2;" edge="1" parent="1">
          <mxGeometry width="50" height="50" relative="1" as="geometry">
            <mxPoint x="921.5" y="2778.9999999999995" as="sourcePoint" />
            <mxPoint x="961.5" y="2778.9999999999995" as="targetPoint" />
          </mxGeometry>
        </mxCell>
        <mxCell id="hplAIRkpgE25BgXuPPtN-151" value="flush_if_id" style="text;html=1;strokeColor=none;fillColor=none;align=center;verticalAlign=middle;whiteSpace=wrap;rounded=0;fontStyle=1" vertex="1" parent="1">
          <mxGeometry x="957" y="2756" width="80.5" height="10" as="geometry" />
        </mxCell>
        <mxCell id="hplAIRkpgE25BgXuPPtN-152" value="flush_id_ex" style="text;html=1;strokeColor=none;fillColor=none;align=center;verticalAlign=middle;whiteSpace=wrap;rounded=0;fontStyle=1" vertex="1" parent="1">
          <mxGeometry x="960" y="2773" width="80.5" height="10" as="geometry" />
        </mxCell>
        <mxCell id="hplAIRkpgE25BgXuPPtN-164" value="" style="endArrow=classic;html=1;rounded=0;entryX=0;entryY=0.875;entryDx=0;entryDy=0;entryPerimeter=0;strokeWidth=2;" edge="1" parent="1">
          <mxGeometry width="50" height="50" relative="1" as="geometry">
            <mxPoint x="921.5" y="2723.7099999999996" as="sourcePoint" />
            <mxPoint x="961.5" y="2723.7099999999996" as="targetPoint" />
          </mxGeometry>
        </mxCell>
        <mxCell id="hplAIRkpgE25BgXuPPtN-165" value="" style="endArrow=classic;html=1;rounded=0;entryX=0;entryY=0.875;entryDx=0;entryDy=0;entryPerimeter=0;strokeWidth=2;" edge="1" parent="1">
          <mxGeometry width="50" height="50" relative="1" as="geometry">
            <mxPoint x="921.5" y="2741.9999999999995" as="sourcePoint" />
            <mxPoint x="961.5" y="2741.9999999999995" as="targetPoint" />
          </mxGeometry>
        </mxCell>
        <mxCell id="hplAIRkpgE25BgXuPPtN-166" value="stall_pc" style="text;html=1;strokeColor=none;fillColor=none;align=center;verticalAlign=middle;whiteSpace=wrap;rounded=0;fontStyle=1" vertex="1" parent="1">
          <mxGeometry x="950" y="2719" width="80.5" height="10" as="geometry" />
        </mxCell>
        <mxCell id="hplAIRkpgE25BgXuPPtN-167" value="stall_if_id" style="text;html=1;strokeColor=none;fillColor=none;align=center;verticalAlign=middle;whiteSpace=wrap;rounded=0;fontStyle=1" vertex="1" parent="1">
          <mxGeometry x="955" y="2736" width="80.5" height="10" as="geometry" />
        </mxCell>
        <mxCell id="hplAIRkpgE25BgXuPPtN-171" value="rf_wd_sel_ex" style="text;html=1;strokeColor=none;fillColor=none;align=center;verticalAlign=middle;whiteSpace=wrap;rounded=0;fontStyle=1" vertex="1" parent="1">
          <mxGeometry x="701" y="2701" width="80.5" height="10" as="geometry" />
        </mxCell>
        <mxCell id="hplAIRkpgE25BgXuPPtN-172" value="" style="endArrow=classic;html=1;rounded=0;entryX=0;entryY=0.875;entryDx=0;entryDy=0;entryPerimeter=0;strokeWidth=2;" edge="1" parent="1">
          <mxGeometry width="50" height="50" relative="1" as="geometry">
            <mxPoint x="784.5" y="2706.8599999999997" as="sourcePoint" />
            <mxPoint x="824.5" y="2706.8599999999997" as="targetPoint" />
          </mxGeometry>
        </mxCell>
        <mxCell id="hplAIRkpgE25BgXuPPtN-173" value="" style="group" vertex="1" connectable="0" parent="1">
          <mxGeometry x="788.5" y="2695" width="15.5" height="22" as="geometry" />
        </mxCell>
        <mxCell id="hplAIRkpgE25BgXuPPtN-174" value="" style="endArrow=none;html=1;rounded=0;" edge="1" parent="hplAIRkpgE25BgXuPPtN-173">
          <mxGeometry width="50" height="50" relative="1" as="geometry">
            <mxPoint x="5.5" y="22" as="sourcePoint" />
            <mxPoint x="15.5" y="2" as="targetPoint" />
          </mxGeometry>
        </mxCell>
        <mxCell id="hplAIRkpgE25BgXuPPtN-175" value="2" style="text;html=1;strokeColor=none;fillColor=none;align=center;verticalAlign=middle;whiteSpace=wrap;rounded=0;fontSize=6;" vertex="1" parent="hplAIRkpgE25BgXuPPtN-173">
          <mxGeometry width="11" height="11" as="geometry" />
        </mxCell>
        <mxCell id="hplAIRkpgE25BgXuPPtN-176" value="rf_wa_ex" style="text;html=1;strokeColor=none;fillColor=none;align=center;verticalAlign=middle;whiteSpace=wrap;rounded=0;fontStyle=1" vertex="1" parent="1">
          <mxGeometry x="712.5" y="2724" width="80.5" height="10" as="geometry" />
        </mxCell>
        <mxCell id="hplAIRkpgE25BgXuPPtN-177" value="" style="endArrow=classic;html=1;rounded=0;entryX=0;entryY=0.875;entryDx=0;entryDy=0;entryPerimeter=0;strokeWidth=2;" edge="1" parent="1">
          <mxGeometry width="50" height="50" relative="1" as="geometry">
            <mxPoint x="785" y="2729.8599999999997" as="sourcePoint" />
            <mxPoint x="825" y="2729.8599999999997" as="targetPoint" />
          </mxGeometry>
        </mxCell>
        <mxCell id="hplAIRkpgE25BgXuPPtN-178" value="" style="group" vertex="1" connectable="0" parent="1">
          <mxGeometry x="789" y="2718" width="15.5" height="22" as="geometry" />
        </mxCell>
        <mxCell id="hplAIRkpgE25BgXuPPtN-179" value="" style="endArrow=none;html=1;rounded=0;" edge="1" parent="hplAIRkpgE25BgXuPPtN-178">
          <mxGeometry width="50" height="50" relative="1" as="geometry">
            <mxPoint x="5.5" y="22" as="sourcePoint" />
            <mxPoint x="15.5" y="2" as="targetPoint" />
          </mxGeometry>
        </mxCell>
        <mxCell id="hplAIRkpgE25BgXuPPtN-180" value="5" style="text;html=1;strokeColor=none;fillColor=none;align=center;verticalAlign=middle;whiteSpace=wrap;rounded=0;fontSize=6;" vertex="1" parent="hplAIRkpgE25BgXuPPtN-178">
          <mxGeometry width="11" height="11" as="geometry" />
        </mxCell>
        <mxCell id="hplAIRkpgE25BgXuPPtN-181" value="rf_ra0_id" style="text;html=1;strokeColor=none;fillColor=none;align=center;verticalAlign=middle;whiteSpace=wrap;rounded=0;fontStyle=1" vertex="1" parent="1">
          <mxGeometry x="713" y="2751" width="80.5" height="10" as="geometry" />
        </mxCell>
        <mxCell id="hplAIRkpgE25BgXuPPtN-182" value="" style="endArrow=classic;html=1;rounded=0;entryX=0;entryY=0.875;entryDx=0;entryDy=0;entryPerimeter=0;strokeWidth=2;" edge="1" parent="1">
          <mxGeometry width="50" height="50" relative="1" as="geometry">
            <mxPoint x="785" y="2756.8599999999997" as="sourcePoint" />
            <mxPoint x="825" y="2756.8599999999997" as="targetPoint" />
          </mxGeometry>
        </mxCell>
        <mxCell id="hplAIRkpgE25BgXuPPtN-183" value="" style="group" vertex="1" connectable="0" parent="1">
          <mxGeometry x="789" y="2745" width="15.5" height="22" as="geometry" />
        </mxCell>
        <mxCell id="hplAIRkpgE25BgXuPPtN-184" value="" style="endArrow=none;html=1;rounded=0;" edge="1" parent="hplAIRkpgE25BgXuPPtN-183">
          <mxGeometry width="50" height="50" relative="1" as="geometry">
            <mxPoint x="5.5" y="22" as="sourcePoint" />
            <mxPoint x="15.5" y="2" as="targetPoint" />
          </mxGeometry>
        </mxCell>
        <mxCell id="hplAIRkpgE25BgXuPPtN-185" value="5" style="text;html=1;strokeColor=none;fillColor=none;align=center;verticalAlign=middle;whiteSpace=wrap;rounded=0;fontSize=6;" vertex="1" parent="hplAIRkpgE25BgXuPPtN-183">
          <mxGeometry width="11" height="11" as="geometry" />
        </mxCell>
        <mxCell id="hplAIRkpgE25BgXuPPtN-186" value="rf_ra1_id" style="text;html=1;strokeColor=none;fillColor=none;align=center;verticalAlign=middle;whiteSpace=wrap;rounded=0;fontStyle=1" vertex="1" parent="1">
          <mxGeometry x="713" y="2773" width="80.5" height="10" as="geometry" />
        </mxCell>
        <mxCell id="hplAIRkpgE25BgXuPPtN-187" value="" style="endArrow=classic;html=1;rounded=0;entryX=0;entryY=0.875;entryDx=0;entryDy=0;entryPerimeter=0;strokeWidth=2;" edge="1" parent="1">
          <mxGeometry width="50" height="50" relative="1" as="geometry">
            <mxPoint x="785" y="2778.8599999999997" as="sourcePoint" />
            <mxPoint x="825" y="2778.8599999999997" as="targetPoint" />
          </mxGeometry>
        </mxCell>
        <mxCell id="hplAIRkpgE25BgXuPPtN-188" value="" style="group" vertex="1" connectable="0" parent="1">
          <mxGeometry x="789" y="2767" width="15.5" height="22" as="geometry" />
        </mxCell>
        <mxCell id="hplAIRkpgE25BgXuPPtN-189" value="" style="endArrow=none;html=1;rounded=0;" edge="1" parent="hplAIRkpgE25BgXuPPtN-188">
          <mxGeometry width="50" height="50" relative="1" as="geometry">
            <mxPoint x="5.5" y="22" as="sourcePoint" />
            <mxPoint x="15.5" y="2" as="targetPoint" />
          </mxGeometry>
        </mxCell>
        <mxCell id="hplAIRkpgE25BgXuPPtN-190" value="5" style="text;html=1;strokeColor=none;fillColor=none;align=center;verticalAlign=middle;whiteSpace=wrap;rounded=0;fontSize=6;" vertex="1" parent="hplAIRkpgE25BgXuPPtN-188">
          <mxGeometry width="11" height="11" as="geometry" />
        </mxCell>
        <mxCell id="hplAIRkpgE25BgXuPPtN-191" value="rf_we_ex" style="text;html=1;strokeColor=none;fillColor=none;align=center;verticalAlign=middle;whiteSpace=wrap;rounded=0;fontStyle=1" vertex="1" parent="1">
          <mxGeometry x="712.5" y="2679" width="80.5" height="10" as="geometry" />
        </mxCell>
        <mxCell id="hplAIRkpgE25BgXuPPtN-192" value="" style="endArrow=classic;html=1;rounded=0;entryX=0;entryY=0.875;entryDx=0;entryDy=0;entryPerimeter=0;strokeWidth=2;" edge="1" parent="1">
          <mxGeometry width="50" height="50" relative="1" as="geometry">
            <mxPoint x="783.25" y="2684.8599999999997" as="sourcePoint" />
            <mxPoint x="823.25" y="2684.8599999999997" as="targetPoint" />
          </mxGeometry>
        </mxCell>
      </root>
    </mxGraphModel>
  </diagram>
</mxfile>
